<?xml version="1.0" standalone="no"?>
<!DOCTYPE svg PUBLIC "-//W3C//DTD SVG 20010904//EN"
 "http://www.w3.org/TR/2001/REC-SVG-20010904/DTD/svg10.dtd">
<svg version="1.0" xmlns="http://www.w3.org/2000/svg"
 width="1600.000000pt" height="1600.000000pt" viewBox="0 0 1600.000000 1600.000000"
 preserveAspectRatio="xMidYMid meet">
<metadata>
Created by potrace 1.11, written by Peter Selinger 2001-2013
</metadata>
<g transform="translate(0.000000,1600.000000) scale(0.100000,-0.100000)"
fill="#000000" stroke="none">
<path d="M12895 15951 c-96 -46 -277 -134 -700 -341 -110 -54 -288 -140 -395
-193 -245 -119 -533 -259 -810 -394 -118 -58 -287 -140 -375 -183 -88 -43
-263 -128 -390 -190 -315 -154 -627 -306 -830 -405 -230 -112 -515 -251 -780
-380 -308 -150 -599 -292 -810 -395 -99 -48 -274 -134 -390 -190 -202 -99
-391 -191 -840 -410 -115 -56 -293 -143 -395 -192 -102 -50 -248 -121 -326
-159 -396 -192 -737 -411 -1054 -673 -122 -101 -166 -142 -340 -316 -186 -185
-292 -306 -420 -474 -19 -26 -40 -52 -45 -59 -36 -41 -168 -235 -250 -367
-263 -419 -507 -1008 -612 -1480 -8 -36 -16 -72 -18 -80 -2 -8 -10 -46 -18
-85 -14 -66 -19 -93 -33 -182 -3 -21 -9 -65 -14 -98 -5 -33 -12 -82 -15 -110
-3 -27 -8 -63 -10 -80 -14 -104 -20 -265 -20 -510 0 -280 8 -449 30 -610 3
-22 8 -58 10 -80 5 -33 26 -162 50 -300 3 -16 26 -113 51 -214 139 -560 371
-1085 699 -1581 265 -401 635 -806 1010 -1107 22 -17 65 -52 95 -76 69 -55
290 -211 348 -244 23 -14 42 -29 42 -34 0 -8 -1735 -2793 -1865 -2994 -18 -27
-85 -135 -150 -240 -65 -104 -132 -212 -150 -240 -61 -96 -154 -245 -165 -265
-9 -17 4 -13 77 23 48 25 149 74 223 110 74 35 248 120 385 187 138 67 320
156 405 197 85 42 261 127 390 191 129 63 307 150 395 192 88 43 268 130 400
195 132 64 312 152 400 195 88 43 268 130 400 195 132 65 317 155 410 200 94
45 265 129 380 185 116 56 291 142 390 190 99 48 279 136 400 195 121 59 301
147 400 195 99 48 279 136 400 195 121 59 301 147 400 195 99 48 297 145 440
215 143 70 321 157 395 192 480 231 804 399 940 487 208 136 408 276 457 320
6 6 26 22 44 36 139 104 451 401 589 560 36 41 70 80 75 86 53 59 86 101 193
244 67 91 126 170 130 175 22 29 196 312 239 390 152 273 284 576 385 880 29
89 92 306 102 355 3 14 17 75 30 135 14 61 27 124 30 140 16 84 46 278 51 326
3 30 8 68 10 84 14 114 20 280 20 540 0 266 -5 369 -20 495 -22 175 -24 195
-41 295 -27 159 -31 185 -50 265 -9 36 -17 72 -19 80 -85 373 -275 872 -461
1210 -23 41 -54 98 -69 125 -35 64 -127 211 -184 295 -68 100 -105 155 -111
160 -3 3 -31 40 -63 82 -210 283 -542 626 -826 854 -128 102 -246 189 -375
275 l-124 82 33 51 c47 73 268 427 280 448 6 10 42 69 81 131 39 61 196 312
349 557 152 245 288 463 303 485 31 48 28 43 232 370 90 143 172 276 182 295
11 19 25 41 31 49 6 7 16 22 22 32 5 11 80 130 165 266 85 135 162 259 172
275 9 16 27 46 41 66 13 20 82 129 152 242 70 113 137 221 150 240 12 19 46
73 75 120 29 47 60 95 68 108 8 12 13 22 11 22 -2 0 -49 -22 -104 -49z m-4610
-5215 c17 -3 48 -7 70 -10 381 -47 763 -184 1103 -397 92 -57 125 -80 243
-169 117 -88 308 -275 409 -400 25 -30 47 -57 51 -60 36 -33 198 -283 272
-420 108 -201 223 -524 260 -730 29 -157 35 -198 44 -300 14 -157 8 -507 -11
-605 -2 -11 -7 -40 -11 -65 -47 -313 -160 -640 -313 -910 -84 -147 -86 -151
-138 -225 -100 -143 -203 -266 -333 -395 -251 -249 -438 -375 -871 -586 -41
-20 -327 -114 -390 -129 -3 0 -23 -5 -45 -10 -22 -4 -44 -9 -50 -11 -36 -8
-189 -34 -230 -38 -27 -3 -81 -9 -120 -13 -125 -13 -547 -4 -575 12 -3 2 -29
6 -59 10 -30 4 -63 9 -75 11 -285 54 -540 142 -786 270 -614 320 -1094 872
-1320 1519 -24 68 -58 176 -66 210 -28 116 -54 245 -59 287 -3 29 -8 60 -10
68 -30 111 -24 601 11 780 2 14 7 43 9 65 17 130 113 440 194 623 79 179 222
421 326 550 169 211 315 359 483 489 48 37 89 70 92 73 3 3 30 21 60 41 350
231 723 382 1085 439 39 6 81 13 95 15 14 3 61 7 105 11 44 3 82 8 85 11 6 5
426 -4 465 -11z"/>
</g>
</svg>
